# xmcd CD database file
#
# Track frame offsets:
#	150
#	13455
#	24515
#	37060
#	49784
#	65966
#	78656
#	90206
#	101205
#	114806
#	126182
#	138753
#
# Disc length: 2018 seconds
#
# Revision: 2
# Processed by: cddbd v1.5.2PL0 Copyright (c) Steve Scherf et al.
# Submitted via: CdAid (MTCDDB.DLL V2003.12.21)
#
DISCID=a107e00c
DTITLE=Donauschwäbische Blasmusik - Errinnerungen an Futok
DYEAR=2009
DGENRE=Ethnic
TTITLE0=Donauschwaben Grüße
TTITLE1=Futoker Lied
TTITLE2=Blasmusik, die hält uns jung
TTITLE3=Rosen der Liebe
TTITLE4=Heimatland an der Donau
TTITLE5=Mein Mädel ist aus Temeschwar
TTITLE6=Futoker Musikanten
TTITLE7=Mach dir schöne Stunden
TTITLE8=Drei weiße Rosen
TTITLE9=Volkslieder-Potpourri
TTITLE10=Aus der Heimat
TTITLE11=Einen Abend lang
EXTD=ID3G:  48 YEAR: 2009
EXTT0=
EXTT1=
EXTT2=
EXTT3=
EXTT4=
EXTT5=
EXTT6=
EXTT7=
EXTT8=
EXTT9=
EXTT10=
EXTT11=
PLAYORDER=
